<svg width="24" height="24" viewBox="0 0 24 24" fill="none" xmlns="http://www.w3.org/2000/svg">
<circle cx="12" cy="12" r="12" fill="#ECECEC"/>
<path d="M6.72639 16.9017C6.26446 17.5092 6.6977 18.3829 7.46086 18.3829H8.00396C8.29478 18.3829 8.56858 18.2458 8.74279 18.0129L16.3251 7.87751C16.7802 7.26909 16.3461 6.4021 15.5862 6.4021H15.1678C14.8796 6.4021 14.6079 6.53683 14.4334 6.7663L6.72639 16.9017Z" fill="#1BE6E6"/>
<path d="M18.3965 8.22138C18.5931 8.5588 18.4379 8.64531 18.2751 8.64531H16.373C16.2157 8.64531 15.9787 8.60146 15.8731 8.43335L14.7306 6.82383C14.5565 6.55996 14.604 6.3999 14.8792 6.3999H16.8405C17.0146 6.3999 17.1585 6.47344 17.2484 6.61187L18.3965 8.22138Z" fill="black"/>
<path d="M14.6875 18.0337C14.8619 18.2643 15.1344 18.3999 15.4236 18.3999H16.0401C16.8037 18.3999 17.2368 17.5253 16.7739 16.9179L9.03495 6.76331C8.86043 6.53431 8.58901 6.3999 8.30109 6.3999H7.74638C6.9844 6.3999 6.55083 7.27123 7.01036 7.87904L14.6875 18.0337Z" fill="black"/>
</svg>
