<svg width="30" height="27" viewBox="0 0 30 27" fill="none" xmlns="http://www.w3.org/2000/svg">
  <path d="M1.6263 25.4806C1.16437 26.088 1.59761 26.9617 2.36076 26.9617H6.48625C6.77707 26.9617 7.05087 26.8246 7.22508 26.5918L26.0109 1.48041C26.466 0.872 26.0318 0.00500488 25.272 0.00500488H21.4555C21.1672 0.00500488 20.8955 0.139736 20.721 0.369204L1.6263 25.4806Z" fill="#1BE6E6"/>
  <path d="M29.2926 4.09833C29.7349 4.85751 29.3858 5.05218 29.0194 5.05218H24.7397C24.3859 5.05218 23.8526 4.9535 23.6151 4.57525L21.0445 0.953844C20.6527 0.360125 20.7596 0 21.3787 0H25.7917C26.1834 0 26.5072 0.165463 26.7094 0.476922L29.2926 4.09833Z" fill="#212121"/>
  <path d="M21.2931 26.6338C21.4675 26.8644 21.7399 27 22.0291 27H26.3193C27.0829 27 27.516 26.1254 27.0531 25.518L7.88247 0.363403C7.70795 0.134404 7.43653 0 7.14861 0H3.01152C2.24954 0 1.81597 0.871324 2.2755 1.47914L21.2931 26.6338Z" fill="#212121"/>
</svg>
