<svg width="122" height="22" viewBox="0 0 122 22" fill="none" xmlns="http://www.w3.org/2000/svg">
<path d="M9.20122 0C3.99624 0 0 3.72383 0 8.67261C0 13.5969 3.99624 17.3942 9.20122 17.3942C14.4062 17.3942 18.4024 13.5969 18.4024 8.67261C18.4024 3.74833 14.4062 0 9.20122 0ZM9.25055 2.93987C12.4081 2.93987 15.0229 5.43875 15.0229 8.67261C15.0229 11.9065 12.4081 14.4543 9.25055 14.4543C6.06836 14.4543 3.37954 11.9065 3.37954 8.67261C3.37954 5.43875 6.0437 2.93987 9.25055 2.93987Z" fill="black"/>
<path d="M28.9504 4.04232C27.4244 4.04232 26.1639 4.5257 25.2374 5.41319C24.9934 5.64688 24.5101 5.4876 24.5101 5.14976V4.47952C24.5101 4.29218 24.3583 4.14031 24.1709 4.14031H21.6425C21.4551 4.14031 21.3033 4.29218 21.3033 4.47952V21.6608C21.3033 21.8481 21.4551 22 21.6425 22H24.1709C24.3583 22 24.5101 21.8481 24.5101 21.6608V16.2376C24.5101 15.9019 24.9845 15.7436 25.2269 15.9759C26.1682 16.878 27.4414 17.3697 28.9997 17.3697C32.7493 17.3697 35.1914 14.6993 35.1914 10.755C35.1914 6.73719 32.6753 4.04232 28.9504 4.04232ZM28.235 14.6258C26.0395 14.6258 24.5101 13.0089 24.5101 10.657C24.5101 8.35412 26.0395 6.7127 28.235 6.7127C30.4058 6.7127 31.9352 8.35412 31.9352 10.657C31.9352 12.9844 30.4058 14.6258 28.235 14.6258Z" fill="black"/>
<path d="M43.4716 4.04232C39.5247 4.04232 36.7619 6.73719 36.7619 10.7305C36.7619 14.6748 39.4507 17.3697 43.5456 17.3697C45.7364 17.3697 47.5749 16.6262 48.8738 15.3457C49.0017 15.2197 48.9986 15.015 48.8739 14.8858L47.6113 13.5781C47.4787 13.4408 47.2595 13.4409 47.1166 13.5674C46.2115 14.3687 45.0553 14.7973 43.817 14.7973C42.0382 14.7973 40.6811 13.8342 40.1549 12.2177C40.0876 12.0109 40.2495 11.8085 40.4669 11.8085H49.4696C49.6481 11.8085 49.7965 11.6691 49.8048 11.4908C50.0163 6.9218 48.0051 4.04232 43.4716 4.04232ZM40.3638 9.67706C40.156 9.67706 39.9961 9.4913 40.0441 9.28915C40.4501 7.57943 41.7271 6.5167 43.4963 6.5167C45.3707 6.5167 46.6372 7.59463 46.848 9.32578C46.8713 9.51679 46.7158 9.67706 46.5234 9.67706H40.3638Z" fill="black"/>
<path d="M60.5123 4.01782C58.8765 4.03649 57.5274 4.51061 56.5631 5.50528C56.3179 5.75825 55.776 5.5981 55.776 5.24577V4.47952C55.776 4.29218 55.6242 4.14031 55.4368 4.14031H52.9084C52.721 4.14031 52.5692 4.29218 52.5692 4.47952V16.908C52.5692 17.0954 52.721 17.2472 52.9084 17.2472H55.4368C55.6242 17.2472 55.776 17.0954 55.776 16.908V10.804C55.776 8.64811 57.0588 7.05568 59.2296 7.03118C61.055 7.03118 62.1651 8.15813 62.1651 9.99555V16.908C62.1651 17.0954 62.3169 17.2472 62.5043 17.2472H65.0574C65.2447 17.2472 65.3966 17.0954 65.3966 16.908V9.06459C65.3966 5.95323 63.5465 4.01782 60.5123 4.01782Z" fill="black"/>
<path d="M76.3003 0.0979957H69.4611C69.2737 0.0979957 69.1219 0.249862 69.1219 0.437199V16.908C69.1219 17.0954 69.2737 17.2472 69.4611 17.2472H76.177C81.5053 17.2472 85.3042 13.6704 85.3042 8.67261C85.3042 3.65033 81.53 0.0979957 76.3003 0.0979957ZM76.3743 14.3563H72.7666C72.5793 14.3563 72.4274 14.2045 72.4274 14.0171V3.32807C72.4274 3.14073 72.5793 2.98887 72.7666 2.98887H76.251C79.4825 2.98887 81.9247 5.34076 81.9247 8.69711C81.9247 12.029 79.5565 14.3563 76.3743 14.3563Z" fill="black"/>
<path d="M100.458 17.0398C100.511 17.1655 100.634 17.2472 100.771 17.2472H103.58C103.824 17.2472 103.989 16.9965 103.891 16.7725L96.7122 0.301673C96.6583 0.177976 96.5362 0.0979957 96.4012 0.0979957H93.4155C93.2812 0.0979957 93.1595 0.17728 93.1052 0.300173L85.8317 16.771C85.7327 16.9952 85.8969 17.2472 86.142 17.2472H88.8252C88.9616 17.2472 89.0847 17.1655 89.1377 17.0398L90.4922 13.8288C90.5452 13.7031 90.6684 13.6214 90.8048 13.6214H98.7911C98.9275 13.6214 99.0507 13.7031 99.1037 13.8288L100.458 17.0398ZM92.2764 10.804C92.0333 10.804 91.8691 10.5559 91.9641 10.3322L94.5079 4.34249C94.6252 4.06614 95.0173 4.06728 95.1331 4.34431L97.6358 10.334C97.7291 10.5575 97.565 10.804 97.3228 10.804H92.2764Z" fill="black"/>
<path d="M116.949 17.1053C117.013 17.1944 117.115 17.2472 117.225 17.2472H120.359C120.636 17.2472 120.796 16.9341 120.635 16.7097L108.765 0.238882C108.701 0.150418 108.599 0.0979957 108.49 0.0979957H105.45C105.174 0.0979957 105.013 0.409976 105.174 0.634471L116.949 17.1053Z" fill="black"/>
<path d="M104.783 16.71C104.621 16.9344 104.782 17.2472 105.058 17.2472H108.094C108.204 17.2472 108.307 17.1938 108.371 17.1039L120.003 0.660587C120.162 0.435927 120.001 0.125488 119.726 0.125488H116.882C116.772 0.125488 116.67 0.178032 116.606 0.266668L104.783 16.71Z" fill="#1BE6E6"/>
<path d="M121.69 2.72662C121.955 3.20882 121.746 3.33246 121.526 3.33246H118.955C118.743 3.33246 118.422 3.26978 118.28 3.02954L116.736 0.729375C116.501 0.352271 116.565 0.123535 116.937 0.123535H119.587C119.822 0.123535 120.017 0.22863 120.138 0.426455L121.69 2.72662Z" fill="black"/>
<path d="M116.95 17.1308C117.013 17.2199 117.116 17.2728 117.226 17.2728H120.36C120.637 17.2728 120.797 16.9596 120.635 16.7352L108.765 0.264421C108.702 0.175957 108.599 0.123535 108.49 0.123535H105.45C105.175 0.123535 105.014 0.435516 105.175 0.66001L116.95 17.1308Z" fill="black"/>
</svg>
