<svg width="115" height="21" viewBox="0 0 115 21" fill="none" xmlns="http://www.w3.org/2000/svg">
<path d="M8.60812 0C3.74445 0 0.0102539 3.50369 0.0102539 8.1599C0.0102539 12.7931 3.74445 16.3659 8.60812 16.3659C13.4718 16.3659 17.206 12.7931 17.206 8.1599C17.206 3.52674 13.4718 0 8.60812 0ZM8.65422 2.76607C11.6047 2.76607 14.048 5.11723 14.048 8.1599C14.048 11.2026 11.6047 13.5998 8.65422 13.5998C5.68069 13.5998 3.16818 11.2026 3.16818 8.1599C3.16818 5.11723 5.65764 2.76607 8.65422 2.76607Z" fill="#212121"/>
<path d="M27.0623 3.80334C25.6793 3.80334 24.5297 4.23118 23.6718 5.01878C23.4158 5.25382 22.9132 5.08727 22.9132 4.73973V4.24392C22.9132 4.05152 22.7572 3.89555 22.5648 3.89555H20.2649C20.0725 3.89555 19.9166 4.05152 19.9166 4.24392V20.351C19.9166 20.5434 20.0725 20.6994 20.2649 20.6994H22.5648C22.7572 20.6994 22.9132 20.5434 22.9132 20.351V15.381C22.9132 15.0356 23.4061 14.8704 23.6602 15.1044C24.5318 15.9067 25.6945 16.3429 27.1084 16.3429C30.612 16.3429 32.894 13.8303 32.894 10.1192C32.894 6.33891 30.5429 3.80334 27.0623 3.80334ZM26.3938 13.7612C24.3423 13.7612 22.9132 12.2399 22.9132 10.027C22.9132 7.86024 24.3423 6.31586 26.3938 6.31586C28.4222 6.31586 29.8514 7.86024 29.8514 10.027C29.8514 12.2168 28.4222 13.7612 26.3938 13.7612Z" fill="#212121"/>
<path d="M40.6313 3.80334C36.9432 3.80334 34.3615 6.33891 34.3615 10.0961C34.3615 13.8073 36.8741 16.3429 40.7004 16.3429C42.7371 16.3429 44.4479 15.6504 45.6606 14.457C45.7913 14.3283 45.7881 14.1193 45.6611 13.9868L44.5227 12.7996C44.3864 12.6574 44.16 12.6576 44.012 12.7877C43.17 13.5272 42.0997 13.9225 40.954 13.9225C39.3044 13.9225 38.0429 13.03 37.5433 11.5296C37.4728 11.318 37.6391 11.1104 37.8622 11.1104H46.2064C46.3898 11.1104 46.5423 10.9674 46.5504 10.7842C46.7388 6.50114 44.8585 3.80334 40.6313 3.80334ZM37.7634 9.10497C37.5502 9.10497 37.3859 8.91427 37.4364 8.70711C37.8242 7.11774 39.0124 6.13145 40.6543 6.13145C42.3949 6.13145 43.5746 7.13311 43.7825 8.74422C43.8078 8.94018 43.648 9.10497 43.4504 9.10497H37.7634Z" fill="#212121"/>
<path d="M56.5546 3.78029C55.076 3.79729 53.8481 4.21522 52.9539 5.08952C52.6948 5.34287 52.1288 5.17382 52.1288 4.81143V4.24392C52.1288 4.05152 51.9729 3.89555 51.7805 3.89555H49.4806C49.2882 3.89555 49.1323 4.05152 49.1323 4.24392V15.8792C49.1323 16.0716 49.2882 16.2276 49.4806 16.2276H51.7805C51.9729 16.2276 52.1288 16.0716 52.1288 15.8792V10.1653C52.1288 8.13685 53.3275 6.63856 55.3559 6.61551C57.0617 6.61551 58.0989 7.67584 58.0989 9.40463V15.8792C58.0989 16.0716 58.2549 16.2276 58.4473 16.2276H60.7702C60.9626 16.2276 61.1186 16.0716 61.1186 15.8792V8.52871C61.1186 5.60129 59.3898 3.78029 56.5546 3.78029Z" fill="#212121"/>
<path d="M71.3073 0.0922024H64.9479C64.7555 0.0922024 64.5996 0.248174 64.5996 0.440574V15.8792C64.5996 16.0716 64.7555 16.2276 64.9479 16.2276H71.192C76.1709 16.2276 79.7207 12.8622 79.7207 8.1599C79.7207 3.43454 76.194 0.0922024 71.3073 0.0922024ZM71.3764 13.5076H68.0367C67.8443 13.5076 67.6883 13.3517 67.6883 13.1593V3.16054C67.6883 2.96814 67.8443 2.81217 68.0367 2.81217H71.2612C74.2808 2.81217 76.5628 5.02502 76.5628 8.18295C76.5628 11.3178 74.3499 13.5076 71.3764 13.5076Z" fill="#212121"/>
<path d="M93.8732 16.0138C93.9274 16.1433 94.0541 16.2276 94.1945 16.2276H96.7516C97.0023 16.2276 97.1709 15.9709 97.0713 15.7408L90.3886 0.302188C90.3334 0.174716 90.2078 0.0922024 90.0689 0.0922024H87.3213C87.183 0.0922024 87.0578 0.174004 87.0023 0.300653L80.2313 15.7393C80.1303 15.9695 80.299 16.2276 80.5503 16.2276H82.9894C83.1298 16.2276 83.2565 16.1433 83.3107 16.0138L84.5608 13.0299C84.615 12.9004 84.7417 12.8161 84.8821 12.8161H92.3018C92.4422 12.8161 92.5689 12.9004 92.6232 13.0299L93.8732 16.0138ZM86.2818 10.1653C86.0325 10.1653 85.8639 9.91119 85.9608 9.68155L88.2914 4.15568C88.4116 3.87081 88.8157 3.87198 88.9342 4.15754L91.2272 9.68341C91.3224 9.91281 91.1538 10.1653 90.9054 10.1653H86.2818Z" fill="#212121"/>
<path d="M109.281 16.0809C109.346 16.1729 109.452 16.2276 109.565 16.2276H112.419C112.702 16.2276 112.867 15.907 112.702 15.6765L101.652 0.237819C101.587 0.146425 101.481 0.0922024 101.369 0.0922024H98.6036C98.3207 0.0922024 98.1558 0.411579 98.3196 0.642253L109.281 16.0809Z" fill="#212121"/>
<path d="M97.9537 15.6769C97.789 15.9075 97.9538 16.2277 98.2372 16.2277H100.998C101.112 16.2277 101.218 16.1725 101.283 16.0796L112.112 0.666803C112.274 0.435964 112.109 0.118164 111.827 0.118164H109.244C109.131 0.118164 109.025 0.172512 108.96 0.264082L97.9537 15.6769Z" fill="#1BE6E6"/>
<path d="M113.72 2.5654C113.968 3.0191 113.772 3.13543 113.566 3.13543H111.165C110.966 3.13543 110.667 3.07646 110.533 2.85042L109.091 0.686235C108.871 0.331424 108.931 0.116211 109.278 0.116211H111.755C111.975 0.116211 112.157 0.215093 112.27 0.401223L113.72 2.5654Z" fill="#212121"/>
<path d="M109.281 16.1049C109.347 16.1969 109.452 16.2516 109.565 16.2516H112.419C112.702 16.2516 112.867 15.931 112.702 15.7005L101.652 0.261828C101.587 0.170433 101.481 0.116211 101.369 0.116211H98.6038C98.3209 0.116211 98.156 0.435588 98.3197 0.666262L109.281 16.1049Z" fill="#212121"/>
</svg>
